<?xml version="1.0" encoding="UTF-8" standalone="no"?><!-- Generator: Gravit.io --><svg xmlns="http://www.w3.org/2000/svg" xmlns:xlink="http://www.w3.org/1999/xlink" style="isolation:isolate" viewBox="0 0 1259 380" width="1259pt" height="380pt"><defs><clipPath id="_clipPath_eFe0ME6aNqaVYPI544JYJZ63YlLxzPoJ"><rect width="1259" height="380"/></clipPath></defs><g clip-path="url(#_clipPath_eFe0ME6aNqaVYPI544JYJZ63YlLxzPoJ)"><g><path d="M 234 189 L 469 189 L 469 356 C 469 369.246 458.246 380 445 380 L 234 380 L 234 189 Z" style="stroke:none;fill:#2B2F3A;stroke-miterlimit:10;"/><path d="M 24 189 L 235 189 L 235 380 L 0 380 L 0 213 C 0 199.754 10.754 189 24 189 Z" style="stroke:none;fill:#7460EE;stroke-miterlimit:10;"/><path d="M 257.875 0 L 469 0 L 469 191 L 234 191 L 234 23.875 C 234 10.698 244.698 0 257.875 0 Z" style="stroke:none;fill:#7460EE;stroke-miterlimit:10;"/><g clip-path="url(#_clipPath_tFrkQn8crYWL18KdjOXP3XWDMlgIipn1)"><text transform="matrix(1,0,0,1,571,159.1)" style="font-family:'Montserrat';font-weight:400;font-size:125px;font-style:normal;fill:#2b2f3a;stroke:none;">WEB</text></g><defs><clipPath id="_clipPath_tFrkQn8crYWL18KdjOXP3XWDMlgIipn1"><rect x="0" y="0" width="443" height="152.375" transform="matrix(1,0,0,1,571,38.1)"/></clipPath></defs><g clip-path="url(#_clipPath_3LepcSMJFHELHrdLeC8gA4AzQHUZOCut)"><text transform="matrix(1,0,0,1,571,310)" style="font-family:'Montserrat';font-weight:700;font-size:125px;font-style:normal;fill:#2b2f3a;stroke:none;">IMPERIUM</text></g><defs><clipPath id="_clipPath_3LepcSMJFHELHrdLeC8gA4AzQHUZOCut"><rect x="0" y="0" width="688" height="152.375" transform="matrix(1,0,0,1,571,189)"/></clipPath></defs></g></g></svg>